<?xml version="1.0" standalone="no"?><svg xmlns="http://www.w3.org/2000/svg" viewBox="0 0 1440 320"><path fill="#0099ff" fill-opacity="1" d="M0,160L6.2,170.7C12.3,181,25,203,37,213.3C49.2,224,62,224,74,197.3C86.2,171,98,117,111,101.3C123.1,85,135,107,148,122.7C160,139,172,149,185,138.7C196.9,128,209,96,222,90.7C233.8,85,246,107,258,122.7C270.8,139,283,149,295,165.3C307.7,181,320,203,332,224C344.6,245,357,267,369,245.3C381.5,224,394,160,406,128C418.5,96,431,96,443,101.3C455.4,107,468,117,480,122.7C492.3,128,505,128,517,112C529.2,96,542,64,554,74.7C566.2,85,578,139,591,176C603.1,213,615,235,628,218.7C640,203,652,149,665,112C676.9,75,689,53,702,58.7C713.8,64,726,96,738,112C750.8,128,763,128,775,122.7C787.7,117,800,107,812,128C824.6,149,837,203,849,192C861.5,181,874,107,886,85.3C898.5,64,911,96,923,128C935.4,160,948,192,960,218.7C972.3,245,985,267,997,229.3C1009.2,192,1022,96,1034,58.7C1046.2,21,1058,43,1071,48C1083.1,53,1095,43,1108,74.7C1120,107,1132,181,1145,176C1156.9,171,1169,85,1182,42.7C1193.8,0,1206,0,1218,10.7C1230.8,21,1243,43,1255,69.3C1267.7,96,1280,128,1292,122.7C1304.6,117,1317,75,1329,90.7C1341.5,107,1354,181,1366,213.3C1378.5,245,1391,235,1403,240C1415.4,245,1428,267,1434,277.3L1440,288L1440,0L1433.8,0C1427.7,0,1415,0,1403,0C1390.8,0,1378,0,1366,0C1353.8,0,1342,0,1329,0C1316.9,0,1305,0,1292,0C1280,0,1268,0,1255,0C1243.1,0,1231,0,1218,0C1206.2,0,1194,0,1182,0C1169.2,0,1157,0,1145,0C1132.3,0,1120,0,1108,0C1095.4,0,1083,0,1071,0C1058.5,0,1046,0,1034,0C1021.5,0,1009,0,997,0C984.6,0,972,0,960,0C947.7,0,935,0,923,0C910.8,0,898,0,886,0C873.8,0,862,0,849,0C836.9,0,825,0,812,0C800,0,788,0,775,0C763.1,0,751,0,738,0C726.2,0,714,0,702,0C689.2,0,677,0,665,0C652.3,0,640,0,628,0C615.4,0,603,0,591,0C578.5,0,566,0,554,0C541.5,0,529,0,517,0C504.6,0,492,0,480,0C467.7,0,455,0,443,0C430.8,0,418,0,406,0C393.8,0,382,0,369,0C356.9,0,345,0,332,0C320,0,308,0,295,0C283.1,0,271,0,258,0C246.2,0,234,0,222,0C209.2,0,197,0,185,0C172.3,0,160,0,148,0C135.4,0,123,0,111,0C98.5,0,86,0,74,0C61.5,0,49,0,37,0C24.6,0,12,0,6,0L0,0Z"></path></svg>